<svg xmlns="http://www.w3.org/2000/svg" width="1185.28" height="308.906" viewBox="0 0 1185.28 308.906">
  <defs>
    <style>
      .cls-1 {
        fill: #feef70;
        fill-rule: evenodd;
      }
    </style>
  </defs>
  <path id="something.svg" class="cls-1" d="M968,122V233c13.1-3.946,23.346-14.79,38-19,42.93-12.335,79.41,10.822,92,41,6.94,16.637,10.38,41.966,9,63-1.81,27.524-2.96,48.491-12,68-25.09,54.154-87.86,51.031-131,18l-2,1q-1,9.5-2,19H903q2.5-19.5,5-39V238q-0.5-37-1-74l-26-10q2.5-16,5-32h82ZM346,223l-46-4q-3-19-6-38c-32.123-14.581-100.629,1.068-73,44,7.319,11.373,20.972,15.067,35,20,47.839,16.822,89.126,25.624,99,81,3.457,19.389-2.854,38.4-8,50-29.925,67.478-124.844,56.892-196,37V334h45c1.728,14.1,4.716,34.147,11,45,34.236,4.088,77.013,11.993,86-23,2.31-8.993.867-21.019-3-27-26.978-41.729-113.527-13.636-132-88-4.6-18.531-.694-42.2,5-56,28.124-68.165,112.537-61.747,183-40v78Zm822-79h127v41H1168V144Zm-411,1H862v41l-106-1Q756.5,165,757,145ZM554,291c-11.1.392-37.174,2.055-43-4-3.992-9.062-3.276-22.233-8-30-59.73-16.409-82.048,48.652-60,100,14.377,33.484,62.65,28.823,95,15,4.558,9.394,16.814,30.79,14,39-15.36,5.13-31.364,13.191-49,17-63.513,13.719-114.5-22.782-127-72-6.014-23.691-3.306-57.82,4-77,27.364-71.838,99.813-80.614,174-51v63Zm192-3-49-2c-0.37-7.439-1.956-20.719-7-24-11.163-4.468-23.472,7.476-30,12q0.5,56.994,1,114l45,3v33H574q0.5-16.5,1-33l22-3q0.5-1.5,1-3c4.659-11.666,2.356-115.693-1-128l-25-9q2.5-16.5,5-33h71q2,16,4,32l4-1c10.444-28.9,51.656-39.684,89-31Q745.5,251.5,746,288Zm485-77,31,3c32.36,7.986,53.76,26,65,55,32.67,84.312-24.58,174.152-112,160-20.97-3.395-39.6-7.108-54-17-37.84-26-51.32-110.176-22-157,13.73-21.924,36.23-36.1,66-42ZM876,424H761q0.5-16,1-32c8.755-.308,19.815-1.769,26-5,0.229-25.968,5.184-115.808-3-131l-24-9q2.5-16,5-32l83,1V344c0,13.71-2.585,34.824,2,45l25,4v31Zm347-169c-18.56,8.411-28.16,13.148-34,34-11.1,39.624-.11,105.8,43,98C1283.35,377.71,1292.47,253.135,1223,255Zm-222,4c-10.823,4.99-22.114,9.374-32,13-0.269,22.491-5.354,83.612,3,98,9,4.2,16.165,10.013,28,12C1054.62,391.169,1065.56,258.315,1001,259Z" transform="translate(-151 -122)"/>
</svg>
